# Blender v2.78 (sub 0) OBJ File: 'dev15.blend'
# www.blender.org
mtllib conveyor.mtl
o conveyorPort_v20170426_Untitled.019
v -0.552021 0.105588 -0.000000
v 0.552021 0.105587 0.000000
v 0.578117 -0.119908 -0.722713
v 0.722654 -0.119908 -0.578176
v 0.578117 0.094748 -0.722713
v 0.575721 0.113030 -0.701278
v 0.701219 0.113030 -0.575780
v 0.722654 0.094747 -0.578176
v 0.552021 0.090353 -0.451709
v 0.552021 0.105588 -0.451709
v 0.552021 0.105587 -0.050223
v 0.559923 0.113028 -0.458174
v 0.451649 0.090353 -0.552080
v 0.458115 0.113028 -0.559982
v 0.451649 0.105588 -0.552080
v 0.578116 -0.119909 0.722714
v 0.722653 -0.119909 0.578177
v 0.578116 0.094747 0.722714
v 0.575720 0.113029 0.701279
v 0.701218 0.113029 0.575781
v 0.722653 0.094747 0.578177
v 0.552020 0.090352 0.451710
v 0.552020 0.105587 0.451710
v 0.552020 0.105587 0.050224
v 0.559922 0.113027 0.458175
v 0.451649 0.090352 0.552081
v 0.458114 0.113027 0.559983
v 0.451649 0.105587 0.552081
v -0.578116 -0.119908 -0.722714
v -0.722653 -0.119908 -0.578177
v -0.578116 0.094748 -0.722714
v -0.575720 0.113030 -0.701279
v -0.701218 0.113030 -0.575781
v -0.722653 0.094748 -0.578177
v -0.552020 0.090353 -0.451710
v -0.552020 0.105588 -0.451710
v -0.552020 0.105588 -0.050224
v -0.559922 0.113028 -0.458175
v -0.451649 0.090353 -0.552081
v -0.458114 0.113028 -0.559983
v -0.451649 0.105588 -0.552081
v -0.578117 -0.119909 0.722713
v -0.722654 -0.119908 0.578176
v -0.578117 0.094747 0.722713
v -0.575721 0.113029 0.701278
v -0.701219 0.113029 0.575780
v -0.722654 0.094747 0.578176
v -0.552021 0.090353 0.451709
v -0.552021 0.105587 0.451709
v -0.552021 0.105588 0.050223
v -0.559923 0.113028 0.458174
v -0.451649 0.090353 0.552080
v -0.458115 0.113028 0.559982
v -0.451649 0.105587 0.552080
v 0.552021 0.107172 0.000000
v -0.552021 0.107172 -0.000000
v 0.552021 0.105587 -0.039913
v 0.552021 0.090353 -0.039913
v 0.552021 0.105587 0.039914
v 0.552021 0.090353 0.039914
v -0.552021 0.105588 -0.039914
v -0.552021 0.090353 -0.039914
v -0.552021 0.105588 0.039914
v -0.552021 0.090353 0.039914
v 0.546036 0.119908 0.044239
v 0.552020 0.114273 0.050224
v -0.546036 0.119908 0.044238
v -0.552021 0.114273 0.050223
v 0.546036 0.119908 -0.044238
v 0.552021 0.114273 -0.050223
v -0.546036 0.119908 -0.044239
v -0.552020 0.114273 -0.050224
v 0.546036 0.119908 -0.019512
v 0.552021 0.114273 -0.007542
v 0.546036 0.119908 0.019513
v 0.552021 0.114273 0.007543
v -0.546036 0.119908 0.019512
v -0.552021 0.114273 0.007542
v -0.546036 0.119908 -0.019513
v -0.552021 0.114273 -0.007543
vt 0.6426 0.6823
vt 0.0672 0.3887
vt 0.5850 0.3887
vt 0.5850 0.9876
vt 0.0672 0.9876
vt 0.0097 0.6940
vt 0.6426 0.4462
vt 0.0097 0.6823
vt 0.0097 0.4462
vt 0.6426 0.6940
vt 0.6426 0.9301
vt 0.0097 0.9301
vt 0.7039 0.7305
vt 0.7073 0.9150
vt 0.7039 0.9154
vt 0.6566 0.6831
vt 0.6906 0.9320
vt 0.6566 0.9604
vt 0.9168 0.8247
vt 0.9182 0.7454
vt 0.9182 0.9041
vt 0.7413 0.2702
vt 0.5421 0.2376
vt 0.7413 0.2376
vt 0.9316 0.9150
vt 0.9119 0.9385
vt 0.9115 0.9350
vt 0.7739 0.2376
vt 0.9855 0.2702
vt 0.7739 0.2702
vt 0.9350 0.9154
vt 0.9316 0.7309
vt 0.9350 0.7305
vt 0.7135 0.3303
vt 0.5696 0.3303
vt 0.7099 0.3247
vt 0.7243 0.7454
vt 0.7256 0.8160
vt 0.7256 0.8247
vt 0.9168 0.9029
vt 0.9006 0.9217
vt 0.8995 0.9203
vt 0.2044 0.3303
vt 0.1548 0.3247
vt 0.2044 0.3247
vt 0.2652 0.2376
vt 0.0661 0.2702
vt 0.0661 0.2376
vt 0.9119 0.7074
vt 0.9115 0.7108
vt 0.0334 0.2376
vt 0.0109 0.3303
vt 0.0145 0.3247
vt 0.1548 0.3303
vt 0.6868 0.6529
vt 0.6906 0.7114
vt 0.9006 0.7277
vt 0.9168 0.7465
vt 0.8995 0.7291
vt 0.1548 0.3360
vt 0.2044 0.3303
vt 0.2044 0.3360
vt 0.7274 0.9350
vt 0.7270 0.9385
vt 0.5094 0.2702
vt 0.5421 0.2702
vt 0.7135 0.3303
vt 0.7099 0.3360
vt 0.5696 0.3303
vt 0.7419 0.9217
vt 0.7256 0.9029
vt 0.7430 0.9203
vt 0.5696 0.3247
vt 0.5200 0.3303
vt 0.5200 0.3247
vt 0.9640 0.6529
vt 0.7151 0.6869
vt 0.7274 0.7108
vt 0.7270 0.7074
vt 0.2979 0.2702
vt 0.2652 0.2702
vt 0.7256 0.7465
vt 0.7419 0.7277
vt 0.7430 0.7291
vt 0.5200 0.3360
vt 0.5696 0.3360
vt 0.5200 0.3303
vt 0.0109 0.3303
vt 0.1548 0.3303
vt 0.0145 0.3360
vt 0.9602 0.7114
vt 0.9357 0.6869
vt 0.9943 0.9604
vt 0.9943 0.6831
vt 0.9640 0.9906
vt 0.9602 0.9320
vt 0.6868 0.9906
vt 0.9357 0.9566
vt 0.7151 0.9566
vt 0.5094 0.2376
vt 0.7073 0.7309
vt 0.9168 0.8334
vt 0.9168 0.8160
vt 0.9855 0.2376
vt 0.7135 0.3247
vt 0.7256 0.8334
vt 0.7243 0.9041
vt 0.0334 0.2702
vt 0.0109 0.3247
vt 0.7135 0.3360
vt 0.2979 0.2376
vt 0.0109 0.3360
vt 0.6669 0.3519
vt 0.0081 0.3617
vt 0.0081 0.3502
vt 0.0081 0.3634
vt 0.6669 0.3749
vt 0.0081 0.3749
vt 0.6669 0.3634
vt 0.6669 0.3634
vt 0.0291 0.0313
vt 0.0302 0.0889
vt 0.0168 0.1003
vt 0.7673 0.1730
vt 0.7663 0.1154
vt 0.7796 0.1040
vt 0.7768 0.1040
vt 0.0196 0.1003
vt 0.7683 0.0313
vt 0.0401 0.0437
vt 0.0306 0.1141
vt 0.0281 0.1730
vt 0.7534 0.1289
vt 0.0471 0.1476
vt 0.0431 0.1281
vt 0.0430 0.0754
vt 0.7493 0.0567
vt 0.7533 0.0762
vt 0.7658 0.0902
vt 0.7683 0.0184
vt 0.0281 0.1859
vt 0.7487 0.1487
vt 0.0398 0.1580
vt 0.7566 0.0463
vt 0.0477 0.0556
vt 0.7563 0.1606
vt 0.0291 0.0184
vt 0.7673 0.1859
vn 0.0000 1.0000 0.0000
vn -0.6489 0.7608 -0.0000
vn -0.6855 0.7281 -0.0000
vn 0.0000 0.0000 -1.0000
vn 0.5199 0.6778 -0.5199
vn 1.0000 0.0000 0.0000
vn 0.6489 0.7608 0.0000
vn 0.6855 0.7281 0.0000
vn -0.4178 0.8068 0.4178
vn -0.7071 0.0000 0.7071
vn -0.0000 -0.0000 1.0000
vn 0.5199 0.6778 0.5199
vn 0.7071 -0.0000 0.7071
vn -1.0000 0.0000 -0.0000
vn -0.4178 0.8068 -0.4178
vn -0.7071 0.0000 -0.7071
vn 0.0000 0.7608 -0.6489
vn -0.5199 0.6778 -0.5199
vn 0.4178 0.8068 0.4178
vn -0.0000 0.7281 0.6855
vn -0.5199 0.6778 0.5199
vn -0.0000 0.7608 0.6489
vn 0.4178 0.8068 -0.4178
vn 0.0000 0.7281 -0.6855
vn 0.7071 0.0000 -0.7071
vn -0.0000 -1.0000 -0.0000
vn -0.0000 0.9048 0.4259
vn 0.0000 0.9048 -0.4259
usemtl Material.007
s off
f 60/1/1 52/2/1 26/3/1
f 13/4/1 39/5/1 62/6/1
f 26/3/1 22/7/1 60/1/1
f 60/1/1 64/8/1 52/2/1
f 48/9/1 52/2/1 64/8/1
f 62/6/1 58/10/1 13/4/1
f 9/11/1 13/4/1 58/10/1
f 39/5/1 35/12/1 62/6/1
usemtl Material.008
f 47/13/2 33/14/2 34/15/2
f 46/16/1 38/17/1 33/18/1
f 2/19/3 25/20/3 12/21/3
f 3/22/4 31/23/4 5/24/4
f 7/25/5 5/26/5 6/27/5
f 8/28/6 17/29/6 4/30/6
f 8/31/7 20/32/7 21/33/7
f 62/34/6 35/35/6 37/36/6
f 51/37/8 50/38/8 1/39/8
f 10/40/9 14/41/9 15/42/9
f 13/43/10 10/44/10 15/45/10
f 44/46/11 16/47/11 18/48/11
f 18/49/12 20/32/12 19/50/12
f 16/47/13 21/51/13 18/48/13
f 58/52/14 11/53/14 9/54/14
f 45/55/1 51/56/1 46/16/1
f 27/57/15 23/58/15 28/59/15
f 23/60/16 26/61/16 28/62/16
f 32/63/17 5/26/17 31/64/17
f 31/64/18 33/14/18 32/63/18
f 30/65/16 31/23/16 29/66/16
f 64/67/6 50/68/6 48/69/6
f 40/70/19 36/71/19 41/72/19
f 15/42/20 40/70/20 41/72/20
f 36/73/13 39/74/13 41/75/13
f 13/43/11 41/75/11 39/74/11
f 19/76/1 53/77/1 45/55/1
f 45/78/21 47/13/21 44/79/21
f 44/46/10 43/80/10 42/81/10
f 18/49/22 45/78/22 44/79/22
f 49/82/23 53/83/23 54/84/23
f 27/57/24 54/84/24 53/83/24
f 54/85/25 48/69/25 49/86/25
f 28/62/4 52/87/4 54/85/4
f 60/88/14 22/89/14 24/90/14
f 19/76/1 25/91/1 27/92/1
f 7/93/1 25/91/1 20/94/1
f 6/95/1 12/96/1 7/93/1
f 32/97/1 14/98/1 6/95/1
f 32/97/1 38/17/1 40/99/1
f 43/80/14 34/100/14 30/65/14
f 4/30/25 5/24/25 8/28/25
f 47/13/2 46/101/2 33/14/2
f 46/16/1 51/56/1 38/17/1
f 12/21/3 10/40/3 11/102/3
f 2/19/3 24/103/3 25/20/3
f 12/21/3 11/102/3 2/19/3
f 23/58/3 25/20/3 24/103/3
f 3/22/4 29/66/4 31/23/4
f 7/25/5 8/31/5 5/26/5
f 8/28/6 21/104/6 17/29/6
f 8/31/7 7/25/7 20/32/7
f 36/73/6 37/36/6 35/35/6
f 61/105/6 62/34/6 37/36/6
f 1/39/8 37/106/8 38/107/8
f 36/71/8 38/107/8 37/106/8
f 51/37/8 49/82/8 50/38/8
f 1/39/8 38/107/8 51/37/8
f 10/40/9 12/21/9 14/41/9
f 13/43/10 9/54/10 10/44/10
f 44/46/11 42/81/11 16/47/11
f 18/49/12 21/33/12 20/32/12
f 16/47/13 17/108/13 21/51/13
f 10/44/14 9/54/14 11/53/14
f 58/52/14 57/109/14 11/53/14
f 45/55/1 53/77/1 51/56/1
f 27/57/15 25/20/15 23/58/15
f 23/60/16 22/89/16 26/61/16
f 32/63/17 6/27/17 5/26/17
f 31/64/18 34/15/18 33/14/18
f 30/65/16 34/100/16 31/23/16
f 49/86/6 48/69/6 50/68/6
f 64/67/6 63/110/6 50/68/6
f 40/70/19 38/107/19 36/71/19
f 15/42/20 14/41/20 40/70/20
f 36/73/13 35/35/13 39/74/13
f 13/43/11 15/45/11 41/75/11
f 19/76/1 27/92/1 53/77/1
f 45/78/21 46/101/21 47/13/21
f 44/46/10 47/111/10 43/80/10
f 18/49/22 19/50/22 45/78/22
f 49/82/23 51/37/23 53/83/23
f 27/57/24 28/59/24 54/84/24
f 54/85/25 52/87/25 48/69/25
f 28/62/4 26/61/4 52/87/4
f 23/60/14 24/90/14 22/89/14
f 59/112/14 60/88/14 24/90/14
f 19/76/1 20/94/1 25/91/1
f 7/93/1 12/96/1 25/91/1
f 6/95/1 14/98/1 12/96/1
f 32/97/1 40/99/1 14/98/1
f 32/97/1 33/18/1 38/17/1
f 43/80/14 47/111/14 34/100/14
f 4/30/25 3/22/25 5/24/25
usemtl Material.009
f 62/113/4 57/114/4 58/115/4
f 59/116/11 64/117/11 60/118/11
f 62/113/4 61/119/4 57/114/4
f 59/116/11 63/120/11 64/117/11
usemtl Material.010
f 11/121/6 74/122/6 2/123/6
f 50/124/14 78/125/14 1/126/14
f 74/122/20 56/127/20 55/128/20
f 37/129/4 70/130/4 11/121/4
f 2/123/6 76/131/6 24/132/6
f 77/133/1 65/134/1 75/135/1
f 73/136/1 71/137/1 79/138/1
f 55/128/24 78/125/24 76/131/24
f 1/126/14 80/139/14 37/129/14
f 11/121/26 61/140/26 37/129/26
f 50/124/26 59/141/26 24/132/26
f 67/142/20 66/143/20 65/134/20
f 72/144/24 69/145/24 70/130/24
f 79/138/27 74/122/27 73/136/27
f 77/133/28 76/131/28 78/125/28
f 73/136/8 70/130/8 69/145/8
f 75/135/8 66/143/8 76/131/8
f 68/146/3 77/133/3 78/125/3
f 72/144/3 79/138/3 71/137/3
f 50/124/11 66/143/11 68/146/11
f 55/128/6 2/123/6 74/122/6
f 11/121/6 70/130/6 74/122/6
f 56/127/14 1/126/14 78/125/14
f 50/124/14 68/146/14 78/125/14
f 74/122/20 80/139/20 56/127/20
f 37/129/4 72/144/4 70/130/4
f 66/143/6 24/132/6 76/131/6
f 2/123/6 55/128/6 76/131/6
f 77/133/1 67/142/1 65/134/1
f 73/136/1 69/145/1 71/137/1
f 55/128/24 56/127/24 78/125/24
f 72/144/14 37/129/14 80/139/14
f 1/126/14 56/127/14 80/139/14
f 11/121/26 57/147/26 61/140/26
f 50/124/26 63/148/26 59/141/26
f 67/142/20 68/146/20 66/143/20
f 72/144/24 71/137/24 69/145/24
f 79/138/27 80/139/27 74/122/27
f 77/133/28 75/135/28 76/131/28
f 73/136/8 74/122/8 70/130/8
f 75/135/8 65/134/8 66/143/8
f 68/146/3 67/142/3 77/133/3
f 72/144/3 80/139/3 79/138/3
f 50/124/11 24/132/11 66/143/11
